<?xml version="1.0" encoding="UTF-8"?>
<svg id="Artwork" xmlns="http://www.w3.org/2000/svg" width="687.4509" height="80.5857" version="1.1" viewBox="0 0 687.4509 80.5857">
  <!-- Generator: Adobe Illustrator 29.8.1, SVG Export Plug-In . SVG Version: 2.1.1 Build 2)  -->
  <defs>
    <style>
      .st0 {
        fill: #fff;
      }
    </style>
  </defs>
  <g>
    <path class="st0" d="M142.653,79.073V25.3054h-.3545l-22.0234,53.7676h-8.4043l-22.0742-53.7676h-.3545v53.7676h-10.3281V6.0154h13.1133l23.6436,58.2236h.4053l23.5928-58.2236h13.1631v73.0576h-10.3789Z"/>
    <path class="st0" d="M160.4743,63.9353c0-9.3164,7.1387-15.0371,19.7959-15.7461l14.5811-.8604v-4.1006c0-5.9238-4-9.4678-10.6826-9.4678-6.3291,0-10.2783,3.0371-11.2402,7.7969h-10.3281c.6074-9.6201,8.8096-16.708,21.9727-16.708,12.9111,0,21.1631,6.835,21.1631,17.5176v36.7061h-10.4805v-8.7588h-.2529c-3.0879,5.9238-9.8213,9.6699-16.8086,9.6699-10.4297,0-17.7197-6.4805-17.7197-16.0488ZM194.8513,59.1257v-4.2021l-13.1133.8096c-6.5312.4561-10.2266,3.3418-10.2266,7.8984,0,4.6572,3.8477,7.6953,9.7207,7.6953,7.6445,0,13.6191-5.2656,13.6191-12.2012Z"/>
    <path class="st0" d="M251.0935,44.1394c-1.1133-5.6709-5.3662-10.1768-12.5049-10.1768-8.4551,0-14.0244,7.0371-14.0244,18.4795,0,11.6953,5.6201,18.4795,14.126,18.4795,6.7334,0,11.1377-3.6953,12.4033-9.8721h10.5312c-1.165,11.3408-10.2275,19.0361-23.0361,19.0361-15.2393,0-25.1621-10.4297-25.1621-27.6436,0-16.9102,9.9229-27.5928,25.0605-27.5928,13.7207,0,22.0742,8.8096,23.0361,19.29h-10.4297Z"/>
    <path class="st0" d="M270.1755,79.073V6.0154h29.1621c12.9609,0,21.4668,7.1895,21.4668,18.2266,0,7.7461-5.7207,14.6826-13.0117,15.8975v.4053c9.9238,1.1133,16.6064,8.1514,16.6064,17.8721,0,12.8594-9.3662,20.6562-24.9092,20.6562h-29.3145ZM281.5163,37.1023h12.708c9.8223,0,15.2393-4.0508,15.2393-11.291,0-6.7842-4.6582-10.5303-12.8594-10.5303h-15.0879v21.8213ZM297.1609,69.8083c10.2266,0,15.6445-4.2021,15.6445-12.1006s-5.5693-11.9482-16.3027-11.9482h-14.9863v24.0488h15.6445Z"/>
    <path class="st0" d="M330.2751,52.4421c0-17.1123,10.0752-27.5928,25.2637-27.5928s25.2637,10.4805,25.2637,27.5928c0,17.1631-10.0244,27.6436-25.2637,27.6436s-25.2637-10.4805-25.2637-27.6436ZM369.6638,52.4421c0-11.7959-5.5693-18.5801-14.125-18.5801s-14.126,6.7842-14.126,18.5801c0,11.8477,5.5693,18.6318,14.126,18.6318,8.6064,0,14.125-6.7842,14.125-18.6318Z"/>
    <path class="st0" d="M386.8845,52.4421c0-17.1123,10.0752-27.5928,25.2637-27.5928s25.2637,10.4805,25.2637,27.5928c0,17.1631-10.0244,27.6436-25.2637,27.6436s-25.2637-10.4805-25.2637-27.6436ZM426.2732,52.4421c0-11.7959-5.5693-18.5801-14.125-18.5801s-14.126,6.7842-14.126,18.5801c0,11.8477,5.5693,18.6318,14.126,18.6318,8.6064,0,14.125-6.7842,14.125-18.6318Z"/>
    <path class="st0" d="M477.5886,25.8113h12.8594l-22.0742,22.9355,22.9346,30.3262h-12.708l-18.0742-23.6436-4.5566,4.5059v19.1377h-10.9355V6.0154h10.9355v42.6299h.1016l21.5176-22.834Z"/>
    <path class="st0" d="M513.5603,79.073V6.0154h10.2773l37.8711,53.8691h.4043V6.0154h11.0371v73.0576h-10.2266l-37.8701-53.8184h-.4561v53.8184h-11.0371Z"/>
    <path class="st0" d="M629.0066,63.4285c-1.5186,9.7207-10.7334,16.6572-22.9346,16.6572-15.6445,0-25.1113-10.5811-25.1113-27.3906,0-16.707,9.6191-27.8457,24.6562-27.8457,14.7832,0,23.9971,10.4297,23.9971,26.5801v3.7471h-37.6162v.6582c0,9.2646,5.5684,15.3906,14.3271,15.3906,6.2275,0,10.835-3.1387,12.3027-7.7969h10.3789ZM592.0476,47.531h26.6309c-.2529-8.1504-5.417-13.8721-13.0615-13.8721s-13.0117,5.8223-13.5693,13.8721Z"/>
    <path class="st0" d="M636.4236,52.4421c0-17.1123,10.0752-27.5928,25.2637-27.5928s25.2637,10.4805,25.2637,27.5928c0,17.1631-10.0244,27.6436-25.2637,27.6436s-25.2637-10.4805-25.2637-27.6436ZM675.8122,52.4421c0-11.7959-5.5693-18.5801-14.125-18.5801s-14.126,6.7842-14.126,18.5801c0,11.8477,5.5693,18.6318,14.126,18.6318,8.6064,0,14.125-6.7842,14.125-18.6318Z"/>
  </g>
  <g>
    <path class="st0" d="M48.3958,19.629c-6.5182-.4822-12.048,3.6408-15.1334,3.6408-3.1302,0-7.9562-3.5369-13.0735-3.4402-6.7194.0984-12.9122,3.9099-16.3769,9.9261-6.979,12.114-1.7815,30.0644,5.0163,39.8945,3.3253,4.8033,7.2912,10.2161,12.5003,10.019,5.014-.1974,6.9111-3.2431,12.9719-3.2431,6.0571,0,7.766,3.2431,13.0682,3.146,5.3969-.1003,8.8163-4.9028,12.1172-9.7327,3.8196-5.5751,5.3893-10.9735,5.4824-11.2587-.1195-.0453-10.5201-4.0357-10.6241-16.0189-.0939-10.0185,8.1773-14.8342,8.5534-15.066-4.6951-6.915-11.9472-7.6775-14.5019-7.8668Z"/>
    <path class="st0" d="M44.3738,13.1398c2.7683-3.3457,4.6309-8.0053,4.118-12.6398-3.9843.158-8.8031,2.654-11.6609,5.9976-2.5591,2.9619-4.8067,7.7058-4.1964,12.2457,4.4409.3431,8.9734-2.2558,11.7393-5.6036Z"/>
  </g>
</svg>